# xmcd
#
# Track frame offsets:
#       150
#       18884
#       46341
#       64732
#       84264
#       99523
#       114114
#       128221
#       148911
#       173243
#       190743
#       206394
#       221882
#       256478
#       271948
#       293190
#       315531
#
# Disc length: 4543 seconds
#
# Revision: 0
# Processed by: cddbd v1.5.1PL2 Copyright (c) Steve Scherf et al.
# Submitted via: WhereIsIt 3.65
#
DISCID=f311bd11
DTITLE=Paul Weller - The Wiltern - Los Angeles Cd1
DYEAR=1900
DGENRE=
TTITLE0=blink and you'll miss it
TTITLE1=the wodcutter's son
TTITLE2=the weaver
TTITLE3=out of the sinking
TTITLE4=amongst butterflies
TTITLE5=paper smile
TTITLE6=from the floorboards up
TTITLE7=up in suze's room
TTITLE8=wild wood
TTITLE9=going places
TTITLE10=savages
TTITLE11=come on let's go
TTITLE12=in the crowd
TTITLE13=the riverbank
TTITLE14=the start of forever
TTITLE15=all on a misty morning
TTITLE16=wishing on a star
EXTD=
EXTT0=
EXTT1=
EXTT2=
EXTT3=
EXTT4=
EXTT5=
EXTT6=
EXTT7=
EXTT8=
EXTT9=
EXTT10=
EXTT11=
EXTT12=
EXTT13=
EXTT14=
EXTT15=
EXTT16=
PLAYORDER=
